<svg xmlns="http://www.w3.org/2000/svg" width="64" height="64" fill="none" viewBox="0 0 64 64"><clipPath id="a" width="64" height="64" x="0" y="0" maskUnits="userSpaceOnUse" style="mask-type:luminance"><path fill="#fff" d="M64 0H0v64h64z" style="fill:#fff;fill-opacity:1"></path></clipPath><g clip-path="url(#a)"><path fill="#fff" d="M32 64c17.673 0 32-14.327 32-32S49.673 0 32 0 0 14.327 0 32s14.327 32 32 32" style="fill:#fff;fill-opacity:1"></path><path fill="#2d25c5" d="M41.333 28v-6.667H22.667V28zm-4-5.333 2 2-2 2-2-2zm-5.333 0 2 2-2 2-2-2zm-5.333 0 2 2-2 2-2-2z" style="fill:#2d25c5;fill:color(display-p3 .1765 .1451 .7725);fill-opacity:1"></path><path fill="#ffd400" d="m36 20 5.333 1.333L44 14.667l-5.333-1.334v1.334H36V12h-8v2.667h-2.667v-1.334L20 14.667l2.667 6.666L28 20zm4-4 1.333 1.333L40 18.667l-1.333-1.334zm-8-1.333L33.333 16 32 17.333 30.667 16zm-8 4-1.333-1.334L24 16l1.333 1.334z" style="fill:#ffd400;fill:color(display-p3 1 .8314 0);fill-opacity:1"></path><path fill="#999" d="M36 20h-8l-5.334 1.333h18.667z" style="fill:#999;fill:color(display-p3 .6 .6 .6);fill-opacity:1"></path><path fill="#2d25c5" d="m24 37.333 1.333 1.334 4 2.666 2.699 1.424 2.635-1.424 4-2.666 2-2.667.666-1.334H22.667L23.333 36zM34.667 36h2.666v2.667h-2.666zm-4 2.667h2.666v2.666h-2.666zm-4-2.667h2.666v2.667h-2.666z" style="fill:#2d25c5;fill:color(display-p3 .1765 .1451 .7725);fill-opacity:1"></path><path fill="#ffd400" d="m32 22.667-2 2 2 2 2-2z" style="fill:#ffd400;fill:color(display-p3 1 .8314 0);fill-opacity:1"></path><path fill="#999" d="M32 14.667 30.666 16 32 17.333 33.333 16zM24 16l-1.334 1.333L24 18.667l1.333-1.334zM40 16l-1.334 1.333L40 18.667l1.333-1.334z" style="fill:#999;fill:color(display-p3 .6 .6 .6);fill-opacity:1"></path><path fill="#ffd400" d="m37.333 22.667-2 2 2 2 2-2zM26.667 22.667l-2 2 2 2 2-2z" style="fill:#ffd400;fill:color(display-p3 1 .8314 0);fill-opacity:1"></path><path fill="#f0263c" d="m44 39.333 1.333-.666v-.88L44 37.334zM46.667 39.14 48 38.698l-1.334-.455zM17.333 38.727v-.485L16 38.697l1.333.444zM18.667 37.788v.879l1.333.666v-2zM44 42.667l-4-1.334v4zM20 42.667l4 2.666v-4z" style="fill:#f0263c;fill:color(display-p3 .9412 .149 .2353);fill-opacity:1"></path><path fill="#ffd400" d="M22.667 36v-2.667L21.333 36 20 34.667 18.666 36l2.667 1.333z" style="fill:#ffd400;fill:color(display-p3 1 .8314 0);fill-opacity:1"></path><path fill="#c8c8c8" d="M18.667 36 20 34.667 22.667 32v-1.333L21.333 28l-2-1.333-.666-1.334V24L20 22.667l-1.333-1.333h-1.334l-.666 1.333L16 24v1.334L14.667 24 16 21.334l-5.333 1.333L9.333 28 12 30.667h1.333L12 32h2.667l-1.334 1.333h1.334v1.334l-2.667 4h2.667l2-2 .666.666h1.334zm-1.334-8 1.334 1.333h-1.334z" style="fill:#c8c8c8;fill:color(display-p3 .7843 .7843 .7843);fill-opacity:1"></path><path fill="#ffd400" d="M22.667 28v-1.333l-2.667-4L18.666 24zM41.333 33.333V36l1.334 1.333L44 36.667 45.333 36 44 34.667 42.666 36z" style="fill:#ffd400;fill:color(display-p3 1 .8314 0);fill-opacity:1"></path><path fill="#c8c8c8" d="m54.667 28-1.334-5.333L48 21.333 49.334 24 48 25.334V24l-.666-1.333-.667-1.333h-1.334L44 22.667 45.334 24v1.334l-.667 1.333-2 1.333-1.334 2.667V32L44 34.667 45.334 36v1.333h1.333l.666-.666 2 2H52l-2.666-4v-1.334h1.333L49.333 32H52l-1.333-1.333H52zm-8 1.333h-1.334L46.668 28z" style="fill:#c8c8c8;fill:color(display-p3 .7843 .7843 .7843);fill-opacity:1"></path><path fill="#ffd400" d="m41.333 28 4-4L44 22.667l-2.667 4V28M45.333 37.788v.879L44 39.333 42.667 40l.56.28L40 41.333l4 1.334-4 2.666-2.769 1.334H26.667L24 45.333l-4-2.666 4-1.334-3.227-1.053.56-.28L20 39.333l-1.333-.666v-1.334h-1.334v1.808L16 38.697v3.97L20 44v2.667l4 2.666 4 1.34h8l4-1.34 4-2.666V44l4-1.333v-3.97l-1.333.444v-1.808h-1.334z" style="fill:#ffd400;fill:color(display-p3 1 .8314 0);fill-opacity:1"></path><path fill="#ffd400" d="M29.333 36h-2.666v2.667h2.666zM37.333 36h-2.666v2.667h2.666zM33.333 38.667h-2.666v2.666h2.666z" style="fill:#ffd400;fill:color(display-p3 1 .8314 0);fill-opacity:1"></path><path fill="#f0263c" d="M41.333 28H22.667v6.667h18.666z" style="fill:#f0263c;fill:color(display-p3 .9412 .149 .2353);fill-opacity:1"></path><path fill="#f0f0f0" d="m32 34-2.667-2.667L32 28.667l2.667 2.666z" style="fill:#f0f0f0;fill:color(display-p3 .9412 .9412 .9412);fill-opacity:1"></path></g></svg>